<?xml version="1.0" encoding="UTF-8" standalone="no"?>
<svg
   xmlns:dc="http://purl.org/dc/elements/1.1/"
   xmlns:cc="http://creativecommons.org/ns#"
   xmlns:rdf="http://www.w3.org/1999/02/22-rdf-syntax-ns#"
   xmlns:svg="http://www.w3.org/2000/svg"
   xmlns="http://www.w3.org/2000/svg"
   viewBox="0 0 848.85333 186.10667"
   height="186.10667"
   width="848.85333"
   xml:space="preserve"
   id="svg2"
   version="1.1"><metadata
     id="metadata8"><rdf:RDF><cc:Work
         rdf:about=""><dc:format>image/svg+xml</dc:format><dc:type
           rdf:resource="http://purl.org/dc/dcmitype/StillImage" /></cc:Work></rdf:RDF></metadata><defs
     id="defs6"><clipPath
       id="clipPath14"
       clipPathUnits="userSpaceOnUse"><path
         id="path12"
         d="M 0,0 H 960 V 540 H 0 Z" /></clipPath><clipPath
       id="clipPath24"
       clipPathUnits="userSpaceOnUse"><path
         id="path22"
         d="M 133.62,204.54 H 283.5 V 354.359 H 133.62 Z" /></clipPath></defs><g
     clip-path="url(#clipPath14)"
     transform="matrix(1.3333333,0,0,-1.3333333,-188.63333,462.312)"
     id="g10"><path
       id="path16"
       style="fill:#ffffff;fill-opacity:1;fill-rule:nonzero;stroke:none"
       d="M 0,0 H 960 V 540 H 0 Z" /><g
       id="g18"><g
         clip-path="url(#clipPath24)"
         id="g20"><g
           transform="matrix(4.0115266,0,0,-4.0083823,0,6.1e-5)"
           id="g26"><g
             transform="translate(66.657,-73.4057)"
             id="g28"><path
               id="path30"
               style="fill:#ffcc4d;fill-opacity:1;fill-rule:nonzero;stroke:none"
               d="m 0,0 c 0,0 3.445,-8.812 1.651,-11.998 -0.604,-1.073 -8,1.998 -10.723,5.442 0,0 -2.586,-0.86 -5.276,-0.86 -2.69,0 -5.276,0.86 -5.276,0.86 -2.723,-3.444 -10.119,-6.515 -10.723,-5.442 -1.794,3.186 1.651,11.998 1.651,11.998 -0.897,1.722 -1.233,4.345 -1.555,7.16 -0.354,3.086 0.35,5.546 0.658,6.089 0.35,0.617 2.123,2.605 4.484,4.306 3.587,2.583 8.967,3.445 10.761,3.445 1.794,0 7.174,-0.861 10.761,-3.445 2.361,-1.701 4.134,-3.689 4.484,-4.306 C 1.205,12.706 1.909,10.246 1.556,7.16 1.232,4.346 0.897,1.722 0,0" /></g></g><g
           transform="matrix(4.0115266,0,0,-4.0083823,0,1.221e-4)"
           id="g32"><g
             transform="translate(36.668,-84.4337)"
             id="g34"><path
               id="path36"
               style="fill:#f18f26;fill-opacity:1;fill-rule:nonzero;stroke:none"
               d="m 0,0 c 0.2,-0.599 5.348,2.173 6.518,5.404 0,0 -3.808,2.624 -4.528,4.624 C 1.99,10.028 -1,3 0,0" /></g></g><g
           transform="matrix(4.0115266,0,0,-4.0083823,0,1.831e-4)"
           id="g38"><g
             transform="translate(40.289,-80.1437)"
             id="g40"><path
               id="path42"
               style="fill:#ffcc4d;fill-opacity:1;fill-rule:nonzero;stroke:none"
               d="m 0,0 c 0,-1.414 5.457,2.733 4.457,3.733 -1,1 -1.255,0.72 -2.255,1.72 C 1.202,6.453 0,1 0,0" /></g></g><g
           transform="matrix(4.0115266,0,0,-4.0083823,0,2.441e-4)"
           id="g44"><g
             transform="translate(67.95,-84.4337)"
             id="g46"><path
               id="path48"
               style="fill:#f18f26;fill-opacity:1;fill-rule:nonzero;stroke:none"
               d="m 0,0 c -0.2,-0.599 -5.348,2.173 -6.518,5.404 0,0 3.808,2.624 4.528,4.624 C -1.99,10.028 1,3 0,0" /></g></g><g
           transform="matrix(4.0115266,0,0,-4.0083823,0,3.052e-4)"
           id="g50"><g
             transform="translate(64.329,-80.1437)"
             id="g52"><path
               id="path54"
               style="fill:#ffcc4d;fill-opacity:1;fill-rule:nonzero;stroke:none"
               d="m 0,0 c 0,-1.414 -5.457,2.733 -4.457,3.733 1,1 1.255,0.72 2.255,1.72 C -1.202,6.453 0,1 0,0" /></g></g><g
           transform="matrix(4.0115266,0,0,-4.0083823,0,3.662e-4)"
           id="g56"><g
             transform="translate(48.31,-67.4037)"
             id="g58"><path
               id="path60"
               style="fill:#292f33;fill-opacity:1;fill-rule:nonzero;stroke:none"
               d="m 0,0 c 0,1.105 -0.896,1.999 -2,1.999 -1.104,0 -2,-0.894 -2,-1.999 0,-1.104 0.896,-1.999 2,-1.999 1.104,0 2,0.896 2,1.999 m 11.998,0 c 0,1.105 -0.896,1.999 -2,1.999 -1.105,0 -2,-0.894 -2,-1.999 0,-1.104 0.895,-1.999 2,-1.999 1.105,0 2,0.896 2,1.999" /></g></g><g
           transform="matrix(4.0115266,0,0,-4.0083823,0,4.272e-4)"
           id="g62"><g
             transform="translate(36.51,-56.9467)"
             id="g64"><path
               id="path66"
               style="fill:#fee7b8;fill-opacity:1;fill-rule:nonzero;stroke:none"
               d="m 0,0 c -0.148,0 -0.294,-0.065 -0.393,-0.19 -0.171,-0.217 -0.134,-0.531 0.083,-0.702 0.162,-0.127 4.02,-3.12 10.648,-2.605 0.275,0.021 0.481,0.261 0.46,0.536 -0.021,0.275 -0.257,0.501 -0.537,0.46 C 4.028,-2.975 0.346,-0.135 0.31,-0.106 0.217,-0.036 0.108,0 0,0 m 8.868,-4.663 c -0.049,0 -0.1,-0.007 -0.149,-0.022 -4.79,-1.497 -8.737,-0.347 -8.777,-0.336 -0.265,0.081 -0.543,-0.07 -0.623,-0.335 -0.079,-0.265 0.071,-0.543 0.335,-0.622 0.173,-0.052 4.286,-1.247 9.362,0.338 0.264,0.083 0.411,0.363 0.328,0.627 -0.066,0.213 -0.263,0.35 -0.476,0.35 M 31.598,0 c 0.148,0 0.294,-0.065 0.393,-0.19 0.171,-0.217 0.134,-0.531 -0.083,-0.702 -0.162,-0.127 -4.02,-3.12 -10.648,-2.605 -0.275,0.021 -0.481,0.261 -0.46,0.536 0.022,0.275 0.257,0.501 0.537,0.46 6.233,-0.474 9.915,2.366 9.951,2.395 C 31.381,-0.036 31.49,0 31.598,0 M 22.73,-4.663 c 0.049,0 0.1,-0.007 0.149,-0.022 4.79,-1.497 8.737,-0.347 8.777,-0.336 0.265,0.081 0.543,-0.07 0.623,-0.335 0.079,-0.265 -0.071,-0.543 -0.335,-0.622 -0.173,-0.052 -4.286,-1.247 -9.362,0.338 -0.264,0.083 -0.411,0.363 -0.328,0.627 0.066,0.213 0.263,0.35 0.476,0.35" /></g></g><g
           transform="matrix(4.0115266,0,0,-4.0083823,0,4.883e-4)"
           id="g68"><g
             transform="translate(59.045,-56.5067)"
             id="g70"><path
               id="path72"
               style="fill:#67757f;fill-opacity:1;fill-rule:nonzero;stroke:none"
               d="m 0,0 c -0.097,-0.258 -0.384,-0.392 -0.643,-0.294 -0.552,0.206 -1.076,0.311 -1.559,0.311 -1.152,0 -1.561,-0.306 -2.033,-0.659 -0.451,-0.338 -0.956,-0.715 -1.99,-0.803 v -2.339 c 0,-0.276 -0.224,-0.5 -0.5,-0.5 -0.276,0 -0.5,0.224 -0.5,0.5 v 2.373 c -0.81,0.115 -1.346,0.439 -1.816,0.743 -0.568,0.367 -1.059,0.685 -2.083,0.685 -0.482,0 -1.006,-0.104 -1.558,-0.311 -0.258,-0.095 -0.547,0.035 -0.643,0.294 -0.097,0.259 0.035,0.547 0.293,0.644 0.664,0.247 1.306,0.373 1.907,0.373 1.319,0 2.014,-0.449 2.627,-0.845 0.524,-0.339 0.98,-0.631 1.848,-0.635 0.992,0.008 1.358,0.278 1.815,0.621 0.538,0.403 1.147,0.859 2.633,0.859 0.601,0 1.244,-0.126 1.908,-0.373 C -0.035,0.547 0.097,0.259 0,0" /></g></g><g
           transform="matrix(4.0115266,0,0,-4.0083823,0,5.493e-4)"
           id="g74"><g
             transform="translate(53.709,-62.5977)"
             id="g76"><path
               id="path78"
               style="fill:#e75a70;fill-opacity:1;fill-rule:nonzero;stroke:none"
               d="m 0,0 h -2.8 c -0.64,0 -1.163,0.523 -1.163,1.163 0,0.639 0.523,1.163 1.163,1.163 h 0.237 v 0.345 c 0,0.639 0.523,1.163 1.163,1.163 0.64,0 1.163,-0.523 1.163,-1.163 V 2.326 H 0 C 0.639,2.326 1.163,1.803 1.163,1.163 1.163,0.523 0.639,0 0,0" /></g></g><g
           transform="matrix(4.0115266,0,0,-4.0083823,0,6.104e-4)"
           id="g80"><g
             transform="translate(52.331,-70.2507)"
             id="g82"><path
               id="path84"
               style="fill:#f18f26;fill-opacity:1;fill-rule:nonzero;stroke:none"
               d="m 0,0 c -0.276,0 -0.5,-0.224 -0.5,-0.5 v -8.284 c 0,-0.276 0.224,-0.5 0.5,-0.5 0.276,0 0.5,0.224 0.5,0.5 V -0.5 C 0.5,-0.223 0.277,0 0,0 m 2.978,-1.582 c -0.276,0 -0.5,-0.224 -0.5,-0.5 0,-2.882 1.232,-5.21 1.285,-5.308 0.13,-0.244 0.435,-0.334 0.677,-0.204 0.243,0.13 0.334,0.433 0.204,0.677 -0.012,0.021 -1.166,2.213 -1.166,4.835 0,0.276 -0.224,0.5 -0.5,0.5 m -6,0 c -0.276,0 -0.5,-0.224 -0.5,-0.5 0,-2.623 -1.155,-4.814 -1.167,-4.835 -0.13,-0.244 -0.038,-0.546 0.205,-0.677 0.242,-0.131 0.545,-0.039 0.676,0.204 0.053,0.098 1.285,2.426 1.285,5.308 0.001,0.276 -0.223,0.5 -0.499,0.5" /></g></g></g></g><text
       id="text88"
       style="font-variant:normal;font-weight:900;font-stretch:normal;font-size:88.01999664px;font-family:'Arial Black';-inkscape-font-specification:Arial-Black;writing-mode:lr-tb;fill:#000000;fill-opacity:1;fill-rule:nonzero;stroke:none"
       transform="matrix(1,0,0,-1,314.9643,240.9108)"><tspan
         id="tspan86"
         y="0"
         x="0 73.320663 113.88028 172.58961 231.29895 290.70364 320.01431 377.07767">GradFlow</tspan></text>
</g></svg>